<svg xmlns="http://www.w3.org/2000/svg" width="22" height="22" viewBox="0 0 22 22">
  <g id="Audit" transform="translate(6638 -110)">
    <rect id="Rectangle_437" data-name="Rectangle 437" width="22" height="22" transform="translate(-6638 110)" fill="none"/>
    <g id="Audit-2" data-name="Audit" transform="translate(-6635.5 113.107)">
      <path id="Path_8582" data-name="Path 8582" d="M18,9.393,16.115,7.3l.263-2.774-2.79-.616L12.127,1.5,9.5,2.6,6.873,1.5,5.412,3.9l-2.79.609.263,2.781L1,9.393l1.885,2.1-.263,2.781,2.79.616,1.46,2.4L9.5,16.181l2.627,1.1,1.46-2.4,2.79-.616-.263-2.774ZM8.024,12.941,5.088,10.077,6.231,8.964l1.793,1.751L12.545,6.3l1.144,1.113Z" transform="translate(-1 -1.5)" fill="#999"/>
    </g>
  </g>
</svg>
