<svg xmlns="http://www.w3.org/2000/svg" width="40" height="40" viewBox="0 0 40 40">
  <g id="Github" transform="translate(6920 -1677)">
    <g id="Group_4571" data-name="Group 4571" transform="translate(-6920 1677)">
      <g id="Rectangle_436" data-name="Rectangle 436" fill="rgba(24,208,154,0.2)" stroke="#18d09a" stroke-width="0.5">
        <rect width="40" height="40" rx="5" stroke="none"/>
        <rect x="0.25" y="0.25" width="39.5" height="39.5" rx="4.75" fill="none"/>
      </g>
    </g>
    <g id="_216082_github_social_icon" data-name="216082_github_social_icon" transform="translate(-6909.965 1688.551)">
      <g id="Group_4574" data-name="Group 4574" transform="translate(0 0)">
        <path id="Path_11273" data-name="Path 11273" d="M18.432,15.9a1.189,1.189,0,0,1,.977.564,2.506,2.506,0,0,1,0,2.773,1.18,1.18,0,0,1-.977.564,1.232,1.232,0,0,1-1.018-.564,2.506,2.506,0,0,1,0-2.773,1.231,1.231,0,0,1,1.018-.564m4.9-5.067a5.992,5.992,0,0,1,1.6,4.2,10.4,10.4,0,0,1-.369,2.88,7.206,7.206,0,0,1-.931,2.077A6.076,6.076,0,0,1,22.244,21.4a7.031,7.031,0,0,1-1.516.887,7.78,7.78,0,0,1-1.582.436A12.812,12.812,0,0,1,17.8,22.9c-.3.013-.624.02-.975.02-.078,0-.346.006-.779.021s-.8.023-1.085.023-.656,0-1.085-.023-.7-.021-.779-.021c-.35,0-.672-.007-.975-.02a12.765,12.765,0,0,1-1.342-.175A7.516,7.516,0,0,1,9.2,22.288,6.958,6.958,0,0,1,7.688,21.4,6.054,6.054,0,0,1,6.3,19.993a7.168,7.168,0,0,1-.931-2.077A10.4,10.4,0,0,1,5,15.036a5.99,5.99,0,0,1,1.6-4.2Q6.426,10.745,6.59,9.1a10.066,10.066,0,0,1,.7-3.035,11.585,11.585,0,0,1,4.941,2.251,11.44,11.44,0,0,1,2.729-.261,10.771,10.771,0,0,1,2.73.262,18.048,18.048,0,0,1,2.57-1.472,8.4,8.4,0,0,1,1.807-.651l.564-.128A9.921,9.921,0,0,1,23.341,9.1q.162,1.642-.013,1.731M15.008,21.965a13.3,13.3,0,0,0,5.44-.864c1.217-.575,1.839-1.762,1.839-3.553a3.338,3.338,0,0,0-1.17-2.6,2.626,2.626,0,0,0-1.408-.692,11.2,11.2,0,0,0-2.449,0c-1.095.088-1.848.128-2.252.128-.548,0-1.139-.026-1.878-.084s-1.321-.093-1.741-.111a5.305,5.305,0,0,0-1.364.154,2.724,2.724,0,0,0-1.214.605,3.345,3.345,0,0,0-1.125,2.6q0,2.686,1.822,3.553a13.072,13.072,0,0,0,5.412.864h.087M11.543,15.9a1.187,1.187,0,0,1,.975.564,2.506,2.506,0,0,1,0,2.773,1.178,1.178,0,0,1-.975.564,1.234,1.234,0,0,1-1.019-.564,2.506,2.506,0,0,1,0-2.773,1.234,1.234,0,0,1,1.019-.564" transform="translate(-5 -6.065)" fill="#18d09a"/>
      </g>
    </g>
  </g>
</svg>
