<svg xmlns="http://www.w3.org/2000/svg" width="164.088" height="31.383" viewBox="0 0 164.088 31.383">
  <g id="Header_Logo" transform="translate(-367.835 -238.038)">
    <g id="Group_4378" data-name="Group 4378" transform="translate(367.835 238.038)">
      <path id="Path_11094" data-name="Path 11094" d="M812.958,518.2c.05-.736.116-1.471.143-2.208a.869.869,0,0,1,.473-.737,19.831,19.831,0,0,1,5.846-2.515,26.765,26.765,0,0,1,3.878-.866,7.924,7.924,0,0,1,2.556.273,27.867,27.867,0,0,1,7.436,2.616,2.273,2.273,0,0,1,1.324,2.191,20.949,20.949,0,0,1-1.993,10.219,16.9,16.9,0,0,1-8.459,7.961.984.984,0,0,1-.731-.015,17.011,17.011,0,0,1-10.11-13.148,19.025,19.025,0,0,1-.259-1.949c-.044-.6-.009-1.213-.009-1.819Zm13.168,8.293c-.271-1.932-.514-3.8-.808-5.653a.665.665,0,0,1,.273-.66,2.5,2.5,0,1,0-3.547,0,.737.737,0,0,1,.248.726c-.174,1.066-.313,2.137-.465,3.206-.111.785-.222,1.569-.336,2.378Z" transform="translate(-812.958 -503.817)" fill="#18d09a"/>
      <path id="Path_11095" data-name="Path 11095" d="M846.388,458.454l-2.811.881c-.2-2.368.036-4.584,1.726-6.376a6.508,6.508,0,0,1,7.172-1.892,6.435,6.435,0,0,1,4.62,5.631,20.376,20.376,0,0,1,.018,2.629l-2.788-.868a4.34,4.34,0,0,0-1.414-3.975,3.986,3.986,0,0,0-5.717.635A4.6,4.6,0,0,0,846.388,458.454Z" transform="translate(-839.504 -450.682)" fill="#18d09a"/>
    </g>
    <path id="Path_11129" data-name="Path 11129" d="M11.693-51.577V-44.7a8.449,8.449,0,0,1-1.034.183,11.043,11.043,0,0,1-1.43.091,3.444,3.444,0,0,1-2.236-.548,2.549,2.549,0,0,1-.624-1.977V-63.166q.365-.061,1.065-.167a9.288,9.288,0,0,1,1.4-.106,3.624,3.624,0,0,1,2.19.517,2.432,2.432,0,0,1,.669,2.008v4.928l6.327-7.3a4.521,4.521,0,0,1,2.966.776,2.36,2.36,0,0,1,.9,1.84,2.982,2.982,0,0,1-.4,1.49A7.77,7.77,0,0,1,20.21-57.6l-3.8,3.8Q18.385-51.607,20-49.9t2.586,2.768a2.756,2.756,0,0,1-.243,1.186,2.708,2.708,0,0,1-.654.882,2.773,2.773,0,0,1-.928.548,3.266,3.266,0,0,1-1.1.183,3.193,3.193,0,0,1-2.038-.624A10.909,10.909,0,0,1,16.1-46.436Zm13.445-7.817a8.62,8.62,0,0,1,.958-.183,9.37,9.37,0,0,1,1.354-.091,3.709,3.709,0,0,1,2.19.5,2.3,2.3,0,0,1,.669,1.932v6.692a2.26,2.26,0,0,0,.608,1.779,2.6,2.6,0,0,0,1.764.532,4.4,4.4,0,0,0,1.141-.122,3.926,3.926,0,0,0,.684-.243v-10.8a8.62,8.62,0,0,1,.958-.183,9.37,9.37,0,0,1,1.354-.091,3.709,3.709,0,0,1,2.19.5,2.3,2.3,0,0,1,.669,1.932v9.4A2.486,2.486,0,0,1,38.4-45.554a8.371,8.371,0,0,1-2.54,1.019,13.9,13.9,0,0,1-3.209.35,11.848,11.848,0,0,1-3.027-.365,6.76,6.76,0,0,1-2.388-1.125,5.032,5.032,0,0,1-1.551-1.962,6.973,6.973,0,0,1-.548-2.9ZM46.674-44.58a2.8,2.8,0,0,1-2.068-.76,2.8,2.8,0,0,1-.76-2.068V-63.166q.365-.061,1.065-.167a9.288,9.288,0,0,1,1.4-.106,3.624,3.624,0,0,1,2.19.517,2.432,2.432,0,0,1,.669,2.008v12.046h6.966a4.047,4.047,0,0,1,.4.882,3.73,3.73,0,0,1,.183,1.186,2.46,2.46,0,0,1-.487,1.673,1.7,1.7,0,0,1-1.338.548Zm27.985-7.483a9.076,9.076,0,0,1-.563,3.285A6.822,6.822,0,0,1,72.484-46.3a7.163,7.163,0,0,1-2.509,1.567,9.3,9.3,0,0,1-3.285.548,9.542,9.542,0,0,1-3.285-.532,6.986,6.986,0,0,1-2.509-1.551,6.822,6.822,0,0,1-1.612-2.479,9.167,9.167,0,0,1-.563-3.316,8.775,8.775,0,0,1,.578-3.255A6.989,6.989,0,0,1,60.925-57.8a7.162,7.162,0,0,1,2.509-1.567,9.21,9.21,0,0,1,3.255-.548,8.986,8.986,0,0,1,3.255.563,7.346,7.346,0,0,1,2.509,1.582,6.988,6.988,0,0,1,1.627,2.479A8.688,8.688,0,0,1,74.658-52.063Zm-7.97-3.8a2.281,2.281,0,0,0-1.977.989,4.826,4.826,0,0,0-.7,2.814,4.864,4.864,0,0,0,.7,2.875,2.3,2.3,0,0,0,1.977.958,2.292,2.292,0,0,0,1.977-.973,4.876,4.876,0,0,0,.7-2.859,4.826,4.826,0,0,0-.7-2.814A2.28,2.28,0,0,0,66.689-55.866Zm19.437.03a4.281,4.281,0,0,0-1.445.243,3.24,3.24,0,0,0-1.186.73,3.627,3.627,0,0,0-.806,1.2,4.205,4.205,0,0,0-.3,1.658,3.486,3.486,0,0,0,1.065,2.8,3.924,3.924,0,0,0,2.646.913,5.2,5.2,0,0,0,1.612-.228,10.593,10.593,0,0,0,1.217-.471,3.17,3.17,0,0,1,.867.913,2.285,2.285,0,0,1,.289,1.186,2.2,2.2,0,0,1-1.2,1.947,6.63,6.63,0,0,1-3.422.73,11.085,11.085,0,0,1-3.452-.5,7.063,7.063,0,0,1-2.616-1.49,6.536,6.536,0,0,1-1.658-2.433A9.01,9.01,0,0,1,77.153-52a8.649,8.649,0,0,1,.654-3.5,6.825,6.825,0,0,1,1.779-2.464,7.541,7.541,0,0,1,2.6-1.46,9.888,9.888,0,0,1,3.118-.487,6.068,6.068,0,0,1,3.376.791,2.369,2.369,0,0,1,1.186,2.038A2.22,2.22,0,0,1,89.594-56a3.765,3.765,0,0,1-.639.867,9.889,9.889,0,0,0-1.247-.471A5.278,5.278,0,0,0,86.126-55.835ZM98.506-44.7a8.62,8.62,0,0,1-.958.183,9.37,9.37,0,0,1-1.354.091,3.709,3.709,0,0,1-2.19-.5,2.3,2.3,0,0,1-.669-1.932V-64.5a8.616,8.616,0,0,1,.958-.183,9.371,9.371,0,0,1,1.354-.091,3.71,3.71,0,0,1,2.19.5,2.3,2.3,0,0,1,.669,1.932v8.03l5.232-5.354a4.212,4.212,0,0,1,2.54.7,2.108,2.108,0,0,1,.958,1.764,2.233,2.233,0,0,1-.152.836,3.058,3.058,0,0,1-.471.776,6.973,6.973,0,0,1-.821.836q-.5.441-1.171,1.019l-1.795,1.551,4.9,4.836a3.8,3.8,0,0,1-.836,2.19,2.543,2.543,0,0,1-1.992.76,3.222,3.222,0,0,1-1.734-.471,6.786,6.786,0,0,1-1.643-1.6l-3.011-3.741Zm16.03-5.323a2.642,2.642,0,0,0,1.43,1.536,5.539,5.539,0,0,0,2.251.441,9.1,9.1,0,0,0,2.433-.319,7.4,7.4,0,0,0,1.856-.745,2.547,2.547,0,0,1,.821.852,2.182,2.182,0,0,1,.335,1.156,2.067,2.067,0,0,1-.426,1.308,3.224,3.224,0,0,1-1.2.913,6.8,6.8,0,0,1-1.84.532,15.139,15.139,0,0,1-2.342.167,10.666,10.666,0,0,1-3.331-.5,7.394,7.394,0,0,1-2.662-1.506,6.907,6.907,0,0,1-1.764-2.525,9.141,9.141,0,0,1-.639-3.559,8.324,8.324,0,0,1,.654-3.452,6.73,6.73,0,0,1,1.734-2.373,7.025,7.025,0,0,1,2.449-1.369,9.07,9.07,0,0,1,2.8-.441,8.449,8.449,0,0,1,2.935.487,7.061,7.061,0,0,1,2.281,1.338,5.787,5.787,0,0,1,1.475,2.038,6.4,6.4,0,0,1,.517,2.586,2.075,2.075,0,0,1-.578,1.582,2.89,2.89,0,0,1-1.612.7Zm2.586-6.114a2.777,2.777,0,0,0-1.932.7,3.036,3.036,0,0,0-.928,1.977l5.171-.852a1.887,1.887,0,0,0-.183-.624,2.139,2.139,0,0,0-.426-.593,2.016,2.016,0,0,0-.7-.441A2.739,2.739,0,0,0,117.122-56.139ZM132.574-44.7a8.62,8.62,0,0,1-.958.183,9.37,9.37,0,0,1-1.354.091,3.709,3.709,0,0,1-2.19-.5,2.3,2.3,0,0,1-.669-1.932V-55.9a2.617,2.617,0,0,1,.456-1.536,4.127,4.127,0,0,1,1.247-1.141,8.667,8.667,0,0,1,2.479-.973,12.845,12.845,0,0,1,2.966-.335q3.316,0,3.316,2.342a3.3,3.3,0,0,1-.152,1.019,3.5,3.5,0,0,1-.365.806,8.674,8.674,0,0,0-1.673-.122,7.625,7.625,0,0,0-1.627.183,5.184,5.184,0,0,0-1.475.548Z" transform="translate(394.056 307.334)" fill="#18d09a"/>
  </g>
</svg>
