<svg xmlns="http://www.w3.org/2000/svg" width="30" height="30" viewBox="0 0 30 30">
  <g id="KCS_Token" transform="translate(9153 -4181)">
    <circle id="Ellipse_80" data-name="Ellipse 80" cx="15" cy="15" r="15" transform="translate(-9153 4181)" fill="#18d09a"/>
    <g id="Group_4567" data-name="Group 4567" transform="translate(-1.415 -1.454)">
      <path id="Path_11127" data-name="Path 11127" d="M812.958,515.293c.027-.4.063-.8.078-1.2a.47.47,0,0,1,.257-.4,10.748,10.748,0,0,1,3.167-1.364,14.521,14.521,0,0,1,2.1-.469,4.291,4.291,0,0,1,1.386.147,15.1,15.1,0,0,1,4.031,1.418,1.232,1.232,0,0,1,.717,1.187,11.354,11.354,0,0,1-1.08,5.539,9.163,9.163,0,0,1-4.586,4.315.533.533,0,0,1-.4-.009,9.221,9.221,0,0,1-5.481-7.127,10.208,10.208,0,0,1-.14-1.056c-.023-.328,0-.658,0-.987Zm7.138,4.5c-.146-1.047-.279-2.058-.438-3.064a.365.365,0,0,1,.147-.358,1.358,1.358,0,1,0-1.923,0,.4.4,0,0,1,.134.394c-.1.577-.169,1.158-.252,1.738-.061.425-.122.853-.183,1.289Z" transform="translate(-9955.422 3681.844)" fill="#fff"/>
      <path id="Path_11128" data-name="Path 11128" d="M845.084,454.9l-1.524.477a4.191,4.191,0,0,1,.935-3.456,3.532,3.532,0,0,1,3.889-1.026,3.488,3.488,0,0,1,2.5,3.052,11.013,11.013,0,0,1,.01,1.425l-1.512-.47a2.353,2.353,0,0,0-.767-2.155,2.161,2.161,0,0,0-3.1.345,2.492,2.492,0,0,0-.436,1.807Z" transform="translate(-9983.83 3739.419)" fill="#fff"/>
    </g>
  </g>
</svg>
