<svg xmlns="http://www.w3.org/2000/svg" width="26" height="26" viewBox="0 0 26 26">
  <g id="KCS_Icon" transform="translate(9153 -4181)">
    <circle id="Ellipse_80" data-name="Ellipse 80" cx="13" cy="13" r="13" transform="translate(-9153 4181)" fill="#18d09a"/>
    <path id="Path_11127" data-name="Path 11127" d="M812.958,514.678c.022-.328.052-.655.064-.983a.386.386,0,0,1,.211-.328,8.825,8.825,0,0,1,2.6-1.12,11.921,11.921,0,0,1,1.726-.385,3.524,3.524,0,0,1,1.138.121,12.4,12.4,0,0,1,3.31,1.164,1.012,1.012,0,0,1,.589.975,9.323,9.323,0,0,1-.887,4.548,7.523,7.523,0,0,1-3.765,3.543.438.438,0,0,1-.325-.007,7.571,7.571,0,0,1-4.5-5.852,8.393,8.393,0,0,1-.115-.867c-.019-.269,0-.54,0-.81Zm5.861,3.691c-.12-.86-.229-1.69-.36-2.516a.3.3,0,0,1,.121-.294,1.115,1.115,0,1,0-1.579,0,.329.329,0,0,1,.11.323c-.078.474-.139.951-.207,1.427-.05.349-.1.7-.15,1.058Z" transform="translate(-9957.493 3678.741)" fill="#fff"/>
    <path id="Path_11128" data-name="Path 11128" d="M844.8,454.141l-1.251.392a3.441,3.441,0,0,1,.768-2.838,2.9,2.9,0,0,1,3.193-.842,2.864,2.864,0,0,1,2.056,2.506,9.054,9.054,0,0,1,.008,1.17l-1.241-.386a1.932,1.932,0,0,0-.63-1.769,1.774,1.774,0,0,0-2.545.283A2.046,2.046,0,0,0,844.8,454.141Z" transform="translate(-9986.267 3736.333)" fill="#fff"/>
  </g>
</svg>
