<svg xmlns="http://www.w3.org/2000/svg" width="13.754" height="19.918" viewBox="0 0 13.754 19.918">
  <g id="lock_green_small" transform="translate(-216 -187.844)">
    <path id="Path_11095" data-name="Path 11095" d="M845.339,455.614l-1.784.559a4.907,4.907,0,0,1,1.1-4.047,4.13,4.13,0,0,1,4.552-1.2,4.084,4.084,0,0,1,2.932,3.574,12.919,12.919,0,0,1,.011,1.668l-1.77-.551a2.754,2.754,0,0,0-.9-2.523,2.53,2.53,0,0,0-3.629.4A2.919,2.919,0,0,0,845.339,455.614Z" transform="translate(-624.97 -262.838)" fill="#18d09a"/>
    <path id="Path_11094" data-name="Path 11094" d="M812.958,515.883c.032-.467.073-.934.09-1.4a.551.551,0,0,1,.3-.468,12.59,12.59,0,0,1,3.71-1.6,16.991,16.991,0,0,1,2.461-.549,5.026,5.026,0,0,1,1.622.173,17.69,17.69,0,0,1,4.719,1.66,1.442,1.442,0,0,1,.84,1.39,13.3,13.3,0,0,1-1.265,6.486,10.729,10.729,0,0,1-5.369,5.052.626.626,0,0,1-.464-.009,10.8,10.8,0,0,1-6.416-8.344,11.906,11.906,0,0,1-.164-1.237c-.028-.383-.006-.77-.006-1.155Zm8.357,5.263c-.172-1.226-.326-2.41-.513-3.588a.423.423,0,0,1,.174-.419,1.59,1.59,0,1,0-2.251,0,.467.467,0,0,1,.157.461c-.11.676-.2,1.356-.3,2.035-.071.5-.141,1-.213,1.509Z" transform="translate(-596.958 -318.907)" fill="#18d09a"/>
  </g>
</svg>
