<svg xmlns="http://www.w3.org/2000/svg" width="50" height="50" viewBox="0 0 50 50">
  <g id="Lock_middle" transform="translate(9192 -3929)">
    <circle id="Ellipse_79" data-name="Ellipse 79" cx="25" cy="25" r="25" transform="translate(-9192 3929)" fill="#18d09a"/>
    <path id="Lock" d="M14.435,22.674h-9.6A4.792,4.792,0,0,1,0,17.941v-5.6A4.721,4.721,0,0,1,3.375,7.855V6.118A6.2,6.2,0,0,1,9.62,0a6.321,6.321,0,0,1,4.443,1.791A6,6,0,0,1,15.9,6.118V7.855a4.721,4.721,0,0,1,3.375,4.488v5.6A4.792,4.792,0,0,1,14.435,22.674Zm-4.8-9.768a.993.993,0,0,0-1,.981v2.5a1.008,1.008,0,0,0,2.015,0v-2.5A1,1,0,0,0,9.631,12.906ZM9.642,1.971A4.208,4.208,0,0,0,5.391,6.094V7.612h8.49V6.118A4.2,4.2,0,0,0,9.642,1.971Z" transform="translate(-9176.637 3942.022)" fill="#fff"/>
  </g>
</svg>
