<svg xmlns="http://www.w3.org/2000/svg" width="45" height="45" viewBox="0 0 45 45">
  <g id="Menu" transform="translate(-1163.334 -23.333)">
    <g id="Iconly_Bold_More_Square" data-name="Iconly/Bold/More Square" transform="translate(1163.334 23.333)">
      <g id="More_Square" data-name="More Square">
        <path id="More_Square-2" data-name="More Square" d="M32.265,45H12.758C5.127,45,0,39.657,0,31.7V13.321C0,5.353,5.127,0,12.758,0H32.265C39.882,0,45,5.353,45,13.321V31.7C45,39.657,39.882,45,32.265,45Zm.316-25.2a2.7,2.7,0,1,0,2.677,2.7A2.7,2.7,0,0,0,32.581,19.8ZM22.5,19.8a2.7,2.7,0,1,0,2.7,2.7A2.7,2.7,0,0,0,22.5,19.8Zm-10.081,0a2.7,2.7,0,1,0,2.7,2.7A2.7,2.7,0,0,0,12.419,19.8Z" fill="#18d09a"/>
      </g>
    </g>
  </g>
</svg>
