<svg xmlns="http://www.w3.org/2000/svg" width="40" height="40" viewBox="0 0 40 40">
  <g id="Telegram" transform="translate(6842 -1677)">
    <g id="Group_4573" data-name="Group 4573" transform="translate(-6842 1677)">
      <g id="Rectangle_436" data-name="Rectangle 436" fill="rgba(24,208,154,0.2)" stroke="#18d09a" stroke-width="0.5">
        <rect width="40" height="40" rx="5" stroke="none"/>
        <rect x="0.25" y="0.25" width="39.5" height="39.5" rx="4.75" fill="none"/>
      </g>
    </g>
    <g id="comp_x5F_335-telegram" transform="translate(-6832.667 1689)">
      <g id="Group_4577" data-name="Group 4577" transform="translate(0 0)">
        <path id="Path_11275" data-name="Path 11275" d="M45.53,64.607,42.575,78.545c-.223.984-.8,1.229-1.631.765l-4.5-3.319-2.173,2.09a1.131,1.131,0,0,1-.905.442l.324-4.587L42.033,66.4c.363-.323-.079-.5-.564-.179l-10.318,6.5-4.442-1.39c-.966-.3-.984-.966.2-1.43L44.284,63.2C45.089,62.9,45.793,63.378,45.53,64.607Z" transform="translate(-26.001 -63.112)" fill="#18d09a"/>
      </g>
    </g>
  </g>
</svg>
