<svg xmlns="http://www.w3.org/2000/svg" width="40" height="40" viewBox="0 0 40 40">
  <g id="Twitter" transform="translate(6959 -1677)">
    <g id="Group_4570" data-name="Group 4570" transform="translate(-6959 1677)">
      <g id="Rectangle_436" data-name="Rectangle 436" fill="rgba(24,208,154,0.2)" stroke="#18d09a" stroke-width="0.5">
        <rect width="40" height="40" rx="5" stroke="none"/>
        <rect x="0.25" y="0.25" width="39.5" height="39.5" rx="4.75" fill="none"/>
      </g>
      <path id="Path_11272" data-name="Path 11272" d="M31.894,14.537a8.386,8.386,0,0,1-2.406.66,4.2,4.2,0,0,0,1.842-2.318A8.393,8.393,0,0,1,28.67,13.9a4.193,4.193,0,0,0-7.139,3.821A11.9,11.9,0,0,1,12.9,13.339a4.194,4.194,0,0,0,1.3,5.593,4.171,4.171,0,0,1-1.9-.524c0,.018,0,.035,0,.053a4.192,4.192,0,0,0,3.361,4.108,4.2,4.2,0,0,1-1.892.072,4.194,4.194,0,0,0,3.914,2.909,8.406,8.406,0,0,1-5.2,1.793,8.573,8.573,0,0,1-1-.059A11.915,11.915,0,0,0,29.816,17.247q0-.273-.012-.542A8.515,8.515,0,0,0,31.894,14.537Z" transform="translate(-1.684 -0.87)" fill="#18d09a"/>
    </g>
  </g>
</svg>
